<?xml version="1.0" standalone="no"?>
<!DOCTYPE svg PUBLIC "-//W3C//DTD SVG 20010904//EN"
 "http://www.w3.org/TR/2001/REC-SVG-20010904/DTD/svg10.dtd">
<svg version="1.0" xmlns="http://www.w3.org/2000/svg"
 width="260.000000pt" height="260.000000pt" viewBox="0 0 260.000000 260.000000"
 preserveAspectRatio="xMidYMid meet">
<metadata>
Created by potrace 1.14, written by Peter Selinger 2001-2017
</metadata>
<g transform="translate(0.000000,260.000000) scale(0.100000,-0.100000)"
fill="#000000" stroke="none">
<path d="M802 2439 c-45 -106 -84 -223 -97 -289 -2 -8 -8 -33 -13 -55 -6 -22
-16 -76 -22 -120 -6 -44 -13 -96 -16 -115 -9 -61 -5 -312 6 -390 6 -41 20
-113 31 -160 11 -47 18 -89 17 -95 -3 -10 -7 -11 -78 -19 -25 -3 -76 -15 -115
-26 -38 -11 -78 -22 -88 -25 -54 -13 -186 -96 -246 -155 -65 -64 -112 -133
-98 -146 3 -4 21 7 40 23 88 77 204 123 332 130 112 6 199 -12 310 -68 103
-51 191 -122 385 -312 181 -177 182 -178 304 -262 187 -130 387 -209 586 -231
165 -19 387 -1 463 38 34 17 14 174 -39 308 -93 234 -336 439 -689 580 -73 29
-213 76 -258 85 -10 2 -26 6 -35 9 -16 5 -43 11 -102 22 -14 2 -34 6 -46 9
-11 2 -40 7 -65 10 -24 3 -55 7 -69 10 -14 3 -79 8 -145 11 -66 3 -121 7 -122
8 -2 2 4 27 13 56 9 30 17 61 19 69 40 221 40 499 0 691 -8 38 -17 84 -20 102
-3 18 -11 51 -17 73 -6 22 -12 45 -14 51 -5 28 -68 191 -80 208 -12 18 -15 16
-32 -25z"/>
<path d="M1988 2196 c-1 -2 -44 -6 -95 -10 -126 -9 -271 -47 -373 -98 -116
-58 -237 -178 -296 -293 -57 -112 -91 -246 -99 -392 l-4 -76 97 6 c366 24 648
232 756 557 28 86 34 116 42 221 5 63 4 77 -9 82 -8 3 -17 4 -19 3z"/>
</g>
</svg>
