<?xml version="1.0" encoding="UTF-8"?>
<svg id="Layer_1" data-name="Layer 1" xmlns="http://www.w3.org/2000/svg" width="600" height="300" viewBox="0 0 600 300">
  <path d="M118.5535,189.4417c-.8609-4.3104,7.9494-8.1729,9.9804-3.8023,1.1867,4.5113-8.1804,8.5441-9.9626,3.875l-.0177-.0727ZM168.3808,204.2105c4.3572-.9624,8.5601-3.8882,11.1347-7.8557,1.7449-2.6478,2.4683-5.5224,2.5327-8.2905.0053-4.7687-1.3005-11.4986-6.5766-12.4824-7.1789-.8559-17.745,9.2222-20.0308,16.6589-2.7577,9.2243,3.7769,13.9972,12.8312,11.9942l.1087-.0244ZM123.8753,179.5195c5.1924,1.7675,12.066-3.0571,11.7732-8.7338-.0913-5.789-6.3922-8.008-11.2223-4.9691-5.0323,2.7306-7.0766,11.3975-.6392,13.6733l.0884.0295ZM128.9897,198.0695c.5806.7264,1.596.802,2.4229.4549,2.4866-.898,5.0691-5.7796,2.6528-8.1194-3.302-2.0247-7.1136,5.1894-5.1203,7.6088l.0447.0557ZM82.8244,180.8886c7.1077-2.6136,14.2507-6.1341,18.5305-12.3319,5.0624-8.1205.0559-16.2042-7.8749-21.0187-10.617-6.8312-26.1165-7.601-36.028.5893-9.4212,7.6641-10.3371,24.7763-.2857,32.1277,7.5323,4.9939,16.6519,3.5462,25.5371.6754l.1209-.0418ZM120.4857,253.6997c12.994,1.2755,7.3268-22.5232,4.7214-30.4107-2.048-6.9151-9.2584-19.3353-17.1415-11.4874-11.5927,12.0548-4.1062,38.5842,12.352,41.8891l.0681.0089ZM81.2748,132.7903c9.477,7.8148,32.2592,16.7859,42.3295,9.3043,5.2364-4.2494,5.5638-11.8481,4.8704-18.2539-1.998-15.2888-8.4149-32.8337-22.8306-40.5061-4.1732-2.1721-8.9905-3.2239-13.4442-2.4993-12.2232,2.2808-21.1129,13.6713-22.7062,25.9267-1.4826,9.8619,3.4698,19.6708,11.6876,25.9536l.0935.0747ZM144.7956,195.8641c.1565-1.6-1.3607-4.0163-2.6319-5.2064-1.6942-1.8523-4.5754-2.3468-3.848.8613.3491,1.5032,1.7273,3.6193,3.2182,4.7213.9796.8521,3.1129,1.6103,3.2558-.3004l.0059-.0758ZM70.1747,197.4536c-5.1157,9.3705-.9932,24.1049,8.3171,28.6593,15.2694,6.2376,29.0071-24.3547,20.8917-35.5017-4.3297-6.1842-13.2436-4.8165-19.8199-1.918-3.9232,1.8035-7.2762,4.7421-9.3337,8.656l-.0551.1044ZM170.4563,239.6111c14.9894-15.6632,3.0845-29.171-16.0889-27.9742-8.9354.4426-19.4804,6.0377-20.4218,15.6857-.393,5.9543,3.1991,12.7989,8.2607,16.6843,3.4958,2.6514,8.1485,3.9971,12.8456,3.5974,5.9554-.4509,11.3153-3.7544,15.3302-7.9163l.0742-.0769ZM148.5384,181.5676c10.2713.2816,16.9557-12.4712,9.0023-19.8119-5.4087-4.7199-13.2267-3.1322-16.1848,3.5243-3.3361,6.7012-1.4984,15.8302,7.0858,16.2838l.0966.0038ZM142.0311,46.7548c-8.2567,1.4533-15.689,8.8335-18.4318,17.7653-5.126,16.7432,4.1913,37.086,12.4817,51.138,3.3983,5.664,8.4828,12.2547,11.5862,14.8721,3.6304,3.1647,6.2586,4.2567,9.8323,1.5535,4.8536-4.3355,7.5677-11.3489,10.0189-17.5993,4.812-13.3224,7.9133-29.479,5.2556-43.174-2.8219-15.3029-14.4646-27.7079-30.6706-24.5705l-.0723.015Z" fill="#fff"/>
  <g>
    <path d="M235.6394,129.1442c3.2464,0,5.9567.26,8.1328.7789,2.1748.5207,3.9932,1.1538,5.4546,1.8993,1.4608.7474,2.6127,1.4775,3.4577,2.1915.9086.7153,1.3632,1.446,1.3632,2.1915,0,.7468-.26,1.5751-.7789,2.4836l-.9741,2.0451c-.6498,1.0396-1.3484,1.656-2.0939,1.8505-.7474.1952-1.5751-.0321-2.4836-.6819-.9741-.7134-2.0624-1.3465-3.2631-1.8987-1.202-.5509-2.5003-.9895-3.8956-1.315-1.3972-.3243-3.0044-.4873-4.8215-.4873-4.1563,0-7.3051,1.3317-9.4478,3.9938-2.1427,2.6634-3.2137,6.9809-3.2137,12.9536v14.7072c0,4.0908.3891,7.3873,1.1686,9.8857.7789,2.5003,1.9969,4.3682,3.6522,5.6004,1.656,1.2341,3.7819,1.8505,6.3799,1.8505,1.6874,0,3.0679-.1612,4.1389-.4867,1.0717-.3243,1.9802-.7455,2.7276-1.2662.7455-.5188,1.281-1.0717,1.6072-1.656.3891-.3891.6479-.7622.7789-1.1198.1297-.3564.1946-.8277.1946-1.4126v-13.1482h-7.8888c-.7795,0-1.3638-.21-1.7536-.6331-.3891-.4219-.5843-1.0229-.5843-1.8024v-4.3829c0-1.4922.8116-2.2396,2.4348-2.2396h16.071c.9741,0,1.6386.1946,1.9963.5843.3564.3891.5361,1.0074.5361,1.8505v30.7775c0,.9741-.1798,1.6406-.5361,1.9969-.3576.3576-.9901.5355-1.8987.5355h-3.8962c-.7789,0-1.3638-.0976-1.7529-.2922-.3898-.1946-.6498-.5843-.7795-1.1686-.0655-.3898-.131-.7949-.1946-1.2174-.0655-.4219-.131-.8283-.1952-1.2174-1.4942,1.8184-3.3113,3.1013-5.454,3.8468-2.1427.7461-4.8696,1.1205-8.1816,1.1205-3.1822,0-6.0068-.4873-8.4737-1.4614-2.4682-.9741-4.5287-2.4836-6.1847-4.5287-1.6553-2.0457-2.9215-4.756-3.7986-8.1328-.8765-3.3755-1.3144-7.4021-1.3144-12.0772v-13.6355c0-5.4546.7943-10.1785,2.386-14.1717,1.5905-3.9932,4.1396-7.1099,7.6454-9.3502,3.5065-2.2403,8.084-3.3601,13.7331-3.3601Z" fill="#fff"/>
    <path d="M268.209,130.605c.454-.1291,1.0871-.21,1.8993-.2434.811-.0321,1.6881-.0642,2.63-.0976.94-.0321,1.8653-.0488,2.7758-.0488h11.3953c4.0253,0,7.3051.7795,9.8375,2.3372,2.5324,1.559,4.3829,3.6381,5.5516,6.2335,1.1686,2.5979,1.7529,5.4546,1.7529,8.5713v3.3113c0,3.1822-.4546,5.8777-1.3632,8.084-.9105,2.2088-2.0945,3.945-3.5553,5.2112s-3.0044,2.1915-4.6263,2.7758v.3898l10.7134,21.0376c.1952.4552.3564.8617.4873,1.2174.1291.3576.1946.7962.1946,1.315v1.8505c0,.7795-.1624,1.3484-.4867,1.7048-.3255.3576-.9741.5355-1.9481.5355h-5.2594c-.9741.0642-1.7048-.0809-2.1915-.4386-.4867-.3557-.8932-.9253-1.2174-1.7041l-10.5188-22.5966h-7.5973v22.0123c0,.9741-.1631,1.6727-.4867,2.0939-.3262.4231-1.0074.6331-2.0457.6331h-5.454c-.9105,0-1.6072-.21-2.0945-.6331-.4867-.4212-.7301-1.1198-.7301-2.0939v-59.0233c0-.7789.1946-1.3465.5843-1.7048.3898-.3557.9741-.5991,1.7529-.7301ZM284.3769,138.9811h-7.6942v22.4014h7.3051c1.882,0,3.4891-.3557,4.8208-1.071,1.3304-.714,2.3693-1.785,3.1167-3.2143.7461-1.4274,1.1205-3.2464,1.1205-5.454v-3.5071c-.0655-2.6608-.7962-4.853-2.1915-6.5738-1.3972-1.7195-3.5553-2.5812-6.4775-2.5812Z" fill="#fff"/>
    <path d="M333.3296,129.1442c3.8307,0,6.8987.3891,9.2044,1.1686,2.3038.7795,4.1056,1.6239,5.4052,2.5324.8431.5843,1.3638,1.2341,1.5584,1.9481.1952.7153.0321,1.5577-.4867,2.5324l-1.1686,2.6294c-.5207.9741-1.1205,1.543-1.8024,1.7048-.6813.1624-1.412.0167-2.1915-.4386-1.6887-.9741-3.3113-1.7369-4.8696-2.2891-1.5584-.5509-3.3768-.8277-5.454-.8277-2.6634,0-4.6924.6665-6.0877,1.9963-1.3972,1.3317-2.0939,3.2631-2.0939,5.7955,0,1.4293.2267,2.6788.6819,3.7498.4533,1.071,1.071,1.9815,1.8505,2.727.7789.7474,1.6874,1.412,2.727,1.9963.9741.5214,1.8993,1.0569,2.7758,1.6078.8765.5522,1.8659,1.1365,2.9703,1.7529,1.1038.6177,2.3379,1.315,3.7017,2.0939,2.2717,1.3002,4.2198,2.6782,5.8437,4.1396,1.6219,1.4608,2.8567,3.2143,3.701,5.2594.8431,2.0451,1.2662,4.6918,1.2662,7.9382,0,2.6628-.3898,5.1618-1.1686,7.4997-.7795,2.3372-1.9815,4.3341-3.6041,5.9895-1.6239,1.656-3.6856,2.9389-6.1847,3.8474-2.5003.9086-5.4058,1.3638-8.7171,1.3638-3.832,0-7.0463-.4386-9.6423-1.315-2.5979-.8765-4.7085-1.9635-6.3311-3.2631-.7789-.5843-1.2508-1.2174-1.412-1.8993-.1631-.6813-.0167-1.5731.4379-2.6782l1.1693-2.4348c.4533-.9086,1.0055-1.4929,1.6553-1.7536.6485-.2588,1.4929-.097,2.5324.4873,1.8171,1.2996,3.6529,2.2737,5.5034,2.9215,1.8505.6498,3.8789.9741,6.0871.9741,2.727,0,4.8696-.7134,6.428-2.1427,1.5584-1.4274,2.3379-3.6034,2.3379-6.5256,0-1.4274-.2119-2.6782-.6331-3.7498-.4231-1.071-1.0229-2.0284-1.8017-2.8734-.7795-.8431-1.7536-1.5898-2.9222-2.2396-1.6239-1.0383-3.1501-1.9635-4.5775-2.7764-1.4293-.811-3.0198-1.8017-4.7727-2.9703-1.9481-1.1038-3.7344-2.3526-5.357-3.7498-1.6239-1.3953-2.9068-3.1315-3.8468-5.2106-.942-2.0778-1.4126-4.6417-1.4126-7.6949,0-2.4669.3731-4.7554,1.1205-6.8666.7455-2.1086,1.8505-3.9925,3.3113-5.6492,1.4608-1.6553,3.3755-2.9536,5.7467-3.8956,2.3693-.9407,5.2106-1.412,8.5219-1.412Z" fill="#fff"/>
    <path d="M377.4511,145.0194c3.0512,0,5.5182.2607,7.4021.7795,1.8826.5207,3.441,1.1686,4.6751,1.9481.7789.5843,1.2174,1.2508,1.315,1.9969.097.7474-.0822,1.6399-.5361,2.6782l-.7789,1.7536c-.4552,1.0389-1.0229,1.6232-1.7048,1.7529-.6813.131-1.543-.0321-2.5806-.4867-.9105-.5195-1.8839-.958-2.9222-1.315-1.0396-.3564-2.3058-.5361-3.7986-.5361-3.0525,0-5.2594,1.0229-6.6226,3.0686-1.3638,2.0451-2.0457,5.244-2.0457,9.5935v8.1809c0,3.1822.3076,5.6825.9253,7.4997.6164,1.8191,1.5905,3.1501,2.9222,3.9932,1.3298.845,2.9048,1.2662,4.7239,1.2662,1.2977,0,2.5472-.1612,3.7498-.4867,1.2007-.3243,2.4181-.8765,3.6522-1.656.9741-.4533,1.7683-.5997,2.386-.4379.6164.1624,1.055.6986,1.315,1.6072l.7789,2.0451c.3243,1.0396.4052,1.8839.244,2.5324-.1631.6498-.6986,1.2662-1.6072,1.8505-1.4293.9741-3.1501,1.7529-5.1624,2.3372-2.013.5843-4.4799.8771-7.4021.8771-3.2477,0-5.9747-.4873-8.1816-1.4614-2.2082-.9741-3.9611-2.3526-5.2594-4.1389-1.2996-1.7857-2.257-3.9771-2.8727-6.5744-.6183-2.5966-.9259-5.4867-.9259-8.6689v-8.7652c0-2.8567.3076-5.5522.9259-8.0846.6158-2.5324,1.6386-4.7875,3.0679-6.769,1.4274-1.9802,3.3113-3.5379,5.6492-4.6751,2.3372-1.1352,5.226-1.7048,8.6683-1.7048Z" fill="#fff"/>
    <path d="M404.0987,127.0009c2.0117,0,3.5058.4873,4.4799,1.4614.9741.9734,1.4614,2.3051,1.4614,3.9932,0,1.6239-.4719,3.0044-1.4126,4.1396-.942,1.1365-2.4836,1.7041-4.6263,1.7041-2.0791,0-3.5553-.5021-4.4317-1.5096-.8765-1.0062-1.315-2.386-1.315-4.1396s.5028-3.1321,1.5102-4.1389c1.0055-1.0062,2.4496-1.5102,4.3341-1.5102ZM401.2741,146.0917h5.6492c.8431,0,1.4441.2106,1.8017.6325.3557.4231.5355,1.0229.5355,1.8024v43.6336c0,.845-.1798,1.4948-.5355,1.9481-.3576.4552-1.0229.6819-1.9969.6819h-5.357c-.8444,0-1.4608-.1779-1.8505-.5355-.3891-.3564-.5843-1.055-.5843-2.0945v-43.6336c0-.7795.1785-1.3792.5361-1.8024.3557-.4219.9567-.6325,1.8017-.6325Z" fill="#fff"/>
    <path d="M442.4831,129.1442c2.8567,0,5.226.1946,7.1099.5843,1.8826.3891,3.4731.8932,4.7727,1.5096,1.2977.6177,2.3693,1.2174,3.2137,1.8017.714.6498,1.1359,1.3317,1.2662,2.0451.1297.7153-.0334,1.559-.4867,2.5324l-1.0717,2.1433c-.4546,1.0389-1.0389,1.6553-1.7529,1.8505-.7153.1946-1.5918-.0321-2.63-.6819-1.2996-.714-2.7116-1.3304-4.2365-1.8505-1.5263-.5188-3.3601-.7795-5.5028-.7795-2.9222,0-5.3082.6498-7.1587,1.9481-1.8505,1.2996-3.1989,3.2477-4.042,5.8443-.845,2.5973-1.2347,5.7795-1.1693,9.5441v13.9283c-.0655,5.7146.9086,9.9833,2.9222,12.8079,2.0117,2.8246,5.0969,4.2365,9.2526,4.2365,2.2724,0,4.2372-.2755,5.8925-.8277,1.656-.5509,3.1976-1.315,4.6269-2.2891.9086-.4533,1.6874-.6331,2.3372-.5355.6485.0976,1.1686.601,1.5584,1.5096l.9741,2.63c.3898.8444.5188,1.6072.3898,2.2884-.131.6819-.5843,1.2829-1.3638,1.8024-1.1686.9098-2.5003,1.7208-3.9932,2.4348-1.4948.7153-3.2477,1.2662-5.2594,1.6553-2.0136.3898-4.286.5849-6.8178.5849-4.0908,0-7.5485-.6331-10.373-1.8993-2.8246-1.2662-5.0648-3.0833-6.7208-5.4546-1.6553-2.3693-2.858-5.2106-3.6034-8.5219-.7474-3.3119-1.1198-7.0451-1.1198-11.2013v-13.0512c0-3.8956.4379-7.4509,1.3144-10.6652.8771-3.2137,2.2403-6.0216,4.0908-8.4243,1.8505-2.4014,4.2205-4.252,7.1099-5.5516,2.8888-1.2983,6.3799-1.9481,10.4706-1.9481Z" fill="#fff"/>
    <path d="M484.1602,145.0194c3.6355,0,6.638.5528,9.0092,1.6566,2.3693,1.1044,4.2365,2.5973,5.6004,4.4799,1.3632,1.8839,2.3372,4.0908,2.9215,6.6232.5843,2.5324.8765,5.2594.8765,8.1816v8.1809c0,2.9877-.3088,5.8122-.9253,8.4737-.6177,2.6634-1.6232,4.9672-3.0191,6.9154-1.3972,1.9481-3.3113,3.4911-5.7461,4.6263-2.4355,1.1352-5.5034,1.7048-9.2044,1.7048s-6.769-.5695-9.2038-1.7048c-2.4355-1.1352-4.3194-2.6936-5.6492-4.6751-1.3317-1.9796-2.2737-4.2853-2.8246-6.9154-.5528-2.6294-.8283-5.4373-.8283-8.4249v-8.1809c0-2.8567.341-5.567,1.0229-8.1328.6819-2.5645,1.7536-4.7881,3.2143-6.672,1.4608-1.8826,3.4089-3.3755,5.8437-4.4799,2.4348-1.1038,5.4058-1.6566,8.9123-1.6566ZM483.8674,153.104c-2.0785,0-3.701.5207-4.8696,1.5584-1.1686,1.0389-1.9815,2.4515-2.4348,4.2365-.4552,1.7863-.6819,3.7498-.6819,5.8925v10.8116c0,2.1427.21,4.1389.6331,5.9895.4219,1.8505,1.2174,3.3453,2.386,4.4805,1.1693,1.1365,2.8246,1.7048,4.9672,1.7048,2.2724,0,3.9771-.5683,5.1136-1.7048,1.1352-1.1352,1.9147-2.63,2.3379-4.4805.4212-1.8505.6331-3.8134.6331-5.8925v-11.0055c0-2.0123-.2119-3.8962-.6331-5.6492-.4231-1.7529-1.2026-3.1809-2.3379-4.2853-1.1365-1.1038-2.8413-1.656-5.1136-1.656Z" fill="#fff"/>
    <path d="M514.6745,126.0275h5.2594c1.1038,0,1.8017.2279,2.0945.6819.2922.4546.4379,1.1365.4379,2.0451v55.809c0,1.2996.1946,2.1106.5843,2.4348.3898.3255,1.1686.4867,2.3379.4867.5188.0655.9253.2286,1.2174.4873.2922.26.4379.7153.4379,1.3638v3.6034c0,.7153-.1303,1.2508-.3891,1.6072-.2607.3557-.6819.6331-1.2662.8277-.5843.0642-1.1538.1612-1.7048.2922-.5522.1297-1.4775.1952-2.7758.1952-3.3113,0-5.6004-.7795-6.8666-2.3379s-1.8993-3.7986-1.8993-6.7202v-58.2438c0-.8437.1952-1.4768.5843-1.8993.3898-.4219,1.0383-.6331,1.9481-.6331Z" fill="#fff"/>
    <path d="M537.6307,126.0275h5.2594c1.1038,0,1.8017.2279,2.0945.6819.2922.4546.4379,1.1365.4379,2.0451v55.809c0,1.2996.1946,2.1106.5843,2.4348.3898.3255,1.1686.4867,2.3379.4867.5188.0655.9253.2286,1.2174.4873.2922.26.4379.7153.4379,1.3638v3.6034c0,.7153-.1303,1.2508-.3891,1.6072-.2607.3557-.6819.6331-1.2662.8277-.5843.0642-1.1538.1612-1.7048.2922-.5522.1297-1.4775.1952-2.7758.1952-3.3113,0-5.6004-.7795-6.8666-2.3379s-1.8993-3.7986-1.8993-6.7202v-58.2438c0-.8437.1952-1.4768.5843-1.8993.3898-.4219,1.0383-.6331,1.9481-.6331Z" fill="#fff"/>
  </g>
</svg>